<svg xmlns="http://www.w3.org/2000/svg" height="90" width="90" viewBox="0 0 90 90"><path d="M11.09 79.18c-4.93-1.53-7.18-4.05-5.72-6.42.73-1.18 1.67-1.14 6.21.3 6.2 1.98 9.4 2.13 13.3.65 3.98-1.51 9.02-6.72 10.3-10.66 2.2-6.7-1.66-8.78-4.7-2.54-4.13 8.5-14.17 10.76-20.3 4.57-4.45-4.48-4.72-8.97-.97-16.23 1.7-3.3 3.1-6.85 3.1-7.88 0-2.22-2.97-5.2-5.17-5.2-.84 0-2.1-.7-2.81-1.55-1.05-1.28-1-1.83.33-3.17 2.46-2.48 9.11-.18 11.65 4.02 2.71 4.48 2.43 8.03-1.22 15.28-2.73 5.42-3 6.63-2.02 8.82 1.37 3.04 5.38 4.28 8.78 2.72 4.52-2.07 6.83-11.53 3.81-15.56-1.94-2.58-1.84-6.56.22-9.53 1.21-1.74 1.7-4.58 1.74-10.15.06-9.13 1.69-12.12 8.5-15.63a19.12 19.12 0 0117.81 0c6.82 3.51 8.44 6.5 8.5 15.63.05 5.57.53 8.4 1.74 10.15 2.07 2.97 2.16 6.95.23 9.53-3.03 4.03-.71 13.49 3.8 15.56 3.4 1.56 7.41.32 8.78-2.72 1-2.19.72-3.4-2.01-8.82-3.65-7.25-3.94-10.8-1.23-15.28 2.54-4.2 9.2-6.5 11.65-4.02 1.33 1.34 1.39 1.89.34 3.17a4.5 4.5 0 01-2.99 1.55c-2.12 0-4.99 3.08-4.99 5.37 0 .94 1.4 4.41 3.1 7.71 4.5 8.72 3.12 14.66-4.29 18.52-6.06 3.16-13.6.12-16.99-6.86-3.06-6.31-6.88-4.14-4.66 2.65 1.52 4.64 7.9 10.32 12.58 11.2 2.23.43 5.56.2 8.24-.57 7.91-2.24 8.65-2.29 9.3-.59.93 2.46-2.44 5.16-8.18 6.55-11.52 2.78-21.24-2.04-26.67-13.23-4.33-8.92-6.1-8.99-9.97-.4-5.45 12.11-16.37 17.01-29.12 13.06zM35.6 41.77c0-1.83-.6-2.59-2.24-2.82-1.34-.2-2.47.3-2.83 1.25-.99 2.6.4 4.74 2.83 4.39 1.64-.24 2.24-.99 2.24-2.82zm23.8 0c0-1.83-.6-2.59-2.24-2.82-1.34-.2-2.47.3-2.83 1.25-.99 2.6.4 4.74 2.83 4.39 1.64-.24 2.24-.99 2.24-2.82z" fill="#ff8a80"/></svg>